<?xml version="1.0" encoding="utf-8"?>
<!-- Generator: Adobe Illustrator 15.1.0, SVG Export Plug-In . SVG Version: 6.00 Build 0)  -->
<!DOCTYPE svg PUBLIC "-//W3C//DTD SVG 1.1//EN" "http://www.w3.org/Graphics/SVG/1.1/DTD/svg11.dtd">
<svg version="1.1" id="Layer_1" xmlns="http://www.w3.org/2000/svg" xmlns:xlink="http://www.w3.org/1999/xlink" x="0px" y="0px"
	 width="308.082px" height="112.26px" viewBox="0 0 308.082 112.26" enable-background="new 0 0 308.082 112.26"
	 xml:space="preserve">
<g>
	<g>
		<path fill="#086DAE" d="M118.464,72.714v11.178h-2.173V72.714H118.464z"/>
		<path fill="#086DAE" d="M120.154,81.67c0.448,0.248,1.227,0.431,1.84,0.431c1.012,0,1.527-0.531,1.527-1.261
			c0-0.813-0.499-1.21-1.443-1.825c-1.526-0.929-2.106-2.104-2.106-3.115c0-1.791,1.195-3.285,3.516-3.285
			c0.746,0,1.443,0.197,1.758,0.396l-0.348,1.875c-0.315-0.198-0.796-0.381-1.41-0.381c-0.929,0-1.377,0.563-1.377,1.162
			c0,0.661,0.332,1.011,1.526,1.74c1.492,0.896,2.023,2.022,2.023,3.2c0,2.041-1.509,3.385-3.682,3.385
			c-0.896,0-1.758-0.233-2.14-0.45L120.154,81.67z"/>
		<path fill="#086DAE" d="M133.538,78.104c0,4.209-1.493,5.918-3.617,5.918c-2.537,0-3.532-2.687-3.532-5.754
			c0-3.051,1.21-5.688,3.699-5.688C132.774,72.581,133.538,75.549,133.538,78.104z M128.645,78.304c0,2.536,0.481,3.83,1.36,3.83
			c0.929,0,1.277-1.658,1.277-3.931c0-1.959-0.298-3.731-1.293-3.731C129.126,74.472,128.645,75.897,128.645,78.304z"/>
		<path fill="#086DAE" d="M137.815,82.217c0.413,0,0.63-0.017,0.978-0.083c0.433-0.082,0.896-0.299,1.278-0.646
			c0.464-0.448,0.862-1.213,1.044-2.172h-0.05c-0.348,0.381-0.845,0.662-1.542,0.662c-1.394,0-2.537-1.244-2.537-3.219
			c0-1.855,1.127-3.781,3.201-3.781c2.006,0,3.067,1.824,3.067,4.43c0,2.439-0.779,4.146-1.774,5.208
			c-0.663,0.715-1.607,1.192-2.67,1.358c-0.332,0.051-0.663,0.051-0.995,0.051V82.217z M139.125,76.578
			c0.017,1.044,0.349,1.907,1.012,1.907c0.381,0,0.714-0.282,0.829-0.564c0.084-0.197,0.1-0.432,0.1-1.145
			c0-1.428-0.397-2.223-0.994-2.223C139.523,74.554,139.092,75.267,139.125,76.578z"/>
		<path fill="#086DAE" d="M150.336,78.451c0,3.862-1.41,5.571-3.151,5.571c-2.354,0-3.15-2.701-3.15-5.472
			c0-3.104,0.995-5.573,3.217-5.573C149.771,72.978,150.336,75.881,150.336,78.451z M146.223,78.501
			c-0.033,2.521,0.282,3.666,1.012,3.666c0.664,0,0.913-1.193,0.913-3.666c0-2.32-0.216-3.664-0.913-3.664
			C146.556,74.837,146.206,75.996,146.223,78.501z"/>
		<path fill="#086DAE" d="M157.4,78.451c0,3.862-1.409,5.571-3.15,5.571c-2.355,0-3.152-2.701-3.152-5.472
			c0-3.104,0.995-5.573,3.218-5.573C156.837,72.978,157.4,75.881,157.4,78.451z M153.288,78.501
			c-0.033,2.521,0.281,3.666,1.012,3.666c0.663,0,0.912-1.193,0.912-3.666c0-2.32-0.216-3.664-0.912-3.664
			C153.619,74.837,153.271,75.996,153.288,78.501z"/>
		<path fill="#086DAE" d="M160.75,75.149h-0.033l-1.824,0.947l-0.365-1.709L161,73.11h1.906V83.89h-2.156V75.149z"/>
		<path fill="#086DAE" d="M165.691,77.224c0-0.777,0.563-1.394,1.229-1.394c0.694,0,1.227,0.548,1.227,1.394
			c0,0.799-0.48,1.36-1.244,1.36C166.223,78.584,165.691,78.021,165.691,77.224z M165.691,82.647c0-0.764,0.563-1.377,1.229-1.377
			c0.694,0,1.227,0.547,1.227,1.377c0,0.812-0.48,1.375-1.244,1.375C166.223,84.022,165.691,83.459,165.691,82.647z"/>
		<path fill="#086DAE" d="M169.123,83.892v-1.459l1.063-1.377c1.396-1.773,2.539-3.25,2.539-4.793c0-0.879-0.481-1.476-1.377-1.476
			c-0.682,0-1.229,0.298-1.609,0.547l-0.397-1.677c0.498-0.331,1.427-0.68,2.405-0.68c2.354,0,3.117,1.575,3.117,3.119
			c0,2.021-1.26,3.647-2.506,5.092l-0.645,0.763v0.032h3.301v1.906h-5.891V83.892z"/>
		<path fill="#086DAE" d="M182.458,78.451c0,3.862-1.41,5.571-3.151,5.571c-2.354,0-3.152-2.701-3.152-5.472
			c0-3.104,0.996-5.573,3.218-5.573C181.893,72.978,182.458,75.881,182.458,78.451z M178.344,78.501
			c-0.033,2.521,0.282,3.666,1.012,3.666c0.664,0,0.912-1.193,0.912-3.666c0-2.32-0.217-3.664-0.912-3.664
			C178.677,74.837,178.327,75.996,178.344,78.501z"/>
		<path fill="#086DAE" d="M185.809,75.149h-0.033l-1.824,0.947l-0.365-1.709l2.471-1.277h1.907V83.89h-2.155V75.149L185.809,75.149z
			"/>
		<path fill="#086DAE" d="M195.955,75.002h-2.854l-0.248,1.94c0.101-0.019,0.201-0.019,0.315-0.019
			c0.465,0.019,1.41,0.233,2.04,0.813c0.598,0.58,0.93,1.393,0.93,2.49c0,2.086-1.394,3.795-3.75,3.795
			c-0.763,0-1.591-0.197-2.021-0.432l0.331-1.707c0.399,0.182,0.946,0.365,1.544,0.365c1.061,0,1.757-0.682,1.757-1.824
			c0-1.461-1.095-1.939-2.34-1.939c-0.298,0-0.546,0-0.778,0.033l0.612-5.408h4.462V75.002z"/>
		<path fill="#086DAE" d="M205.922,83.726c-0.314,0.15-0.927,0.267-1.675,0.267c-2.869,0-4.229-2.339-4.229-5.523
			c0-4.213,2.34-5.854,4.512-5.854c0.764,0,1.294,0.147,1.509,0.298l-0.363,1.824c-0.248-0.114-0.53-0.215-1.012-0.215
			c-1.228,0-2.338,1.062-2.338,3.832c0,2.668,1.012,3.713,2.338,3.713c0.364,0,0.778-0.082,1.045-0.166L205.922,83.726z"/>
		<path fill="#086DAE" d="M208.658,80.606c0.018,1.262,0.763,1.726,1.708,1.726c0.614,0,1.145-0.132,1.544-0.267l0.281,1.56
			c-0.549,0.216-1.395,0.366-2.207,0.366c-2.224,0-3.434-1.461-3.434-3.998c0-2.737,1.426-4.36,3.251-4.36
			c1.741,0,2.755,1.375,2.755,3.847c0,0.58-0.035,0.896-0.066,1.129h-3.832V80.606z M210.583,79.083
			c0-1.047-0.267-1.859-0.914-1.859c-0.694,0-0.993,1.047-1.011,1.859H210.583z"/>
		<path fill="#086DAE" d="M213.781,78.219c0-0.795-0.032-1.675-0.064-2.438h1.875l0.114,1.178h0.065
			c0.349-0.862,1.015-1.326,1.594-1.326c0.229,0,0.349,0.015,0.464,0.05v2.139c-0.134-0.016-0.28-0.016-0.464-0.016
			c-0.465,0-1.078,0.313-1.311,1.146c-0.066,0.18-0.101,0.479-0.101,0.812v4.129h-2.174L213.781,78.219L213.781,78.219z"/>
		<path fill="#086DAE" d="M221.511,73.675v2.106h1.591v1.542h-1.591v3.697c0,0.947,0.396,1.18,0.812,1.18
			c0.216,0,0.381-0.02,0.582-0.051l0.016,1.69c-0.299,0.082-0.763,0.15-1.324,0.15c-0.632,0-1.181-0.15-1.576-0.515
			c-0.433-0.433-0.681-1.045-0.681-2.322v-3.831h-0.964V75.78h0.964v-1.426L221.511,73.675z"/>
		<path fill="#086DAE" d="M226.285,73.644c0.016,0.693-0.48,1.176-1.145,1.176c-0.597,0-1.097-0.481-1.078-1.176
			c-0.019-0.731,0.515-1.194,1.11-1.194C225.805,72.448,226.285,72.911,226.285,73.644z M224.113,83.892v-8.109h2.172v8.109H224.113
			z"/>
		<path fill="#086DAE" d="M228.193,83.892v-6.567h-1.096v-1.542h1.096v-0.434c0-1.043,0.662-3.065,3.599-3.065
			c0.78,0,1.476,0.133,1.906,0.331l-0.298,1.709c-0.383-0.135-0.863-0.266-1.526-0.266c-1.177,0-1.508,0.68-1.508,1.441v0.282h4.028
			v8.108h-2.172v-6.566h-1.856v6.566h-2.173V83.892z"/>
		<path fill="#086DAE" d="M237.743,80.606c0.019,1.262,0.763,1.726,1.709,1.726c0.614,0,1.146-0.132,1.543-0.267l0.28,1.56
			c-0.547,0.216-1.392,0.366-2.205,0.366c-2.223,0-3.432-1.461-3.432-3.998c0-2.737,1.424-4.36,3.248-4.36
			c1.741,0,2.756,1.375,2.756,3.847c0,0.58-0.035,0.896-0.066,1.129h-3.833V80.606z M239.668,79.083
			c0-1.047-0.266-1.859-0.913-1.859c-0.694,0-0.993,1.047-1.012,1.859H239.668z"/>
		<path fill="#086DAE" d="M248.758,72.415v9.07c0,0.765,0.032,1.658,0.064,2.404h-1.874l-0.115-0.91h-0.051
			c-0.298,0.562-0.946,1.043-1.673,1.043c-1.729,0-2.522-1.905-2.522-4.178c0-2.82,1.244-4.213,2.604-4.213
			c0.711,0,1.145,0.363,1.358,0.827h0.033v-4.045L248.758,72.415L248.758,72.415z M246.584,78.899c0-0.15,0-0.332-0.033-0.481
			c-0.066-0.497-0.333-0.946-0.763-0.946c-0.767,0-1.045,1.112-1.045,2.422c0,1.543,0.413,2.356,1.011,2.356
			c0.283,0,0.598-0.149,0.764-0.714c0.051-0.117,0.066-0.297,0.066-0.516V78.899z"/>
		<path fill="#086DAE" d="M258.475,83.726c-0.315,0.15-0.931,0.267-1.677,0.267c-2.868,0-4.229-2.339-4.229-5.523
			c0-4.213,2.339-5.854,4.513-5.854c0.763,0,1.293,0.147,1.508,0.298l-0.362,1.824c-0.25-0.114-0.533-0.215-1.013-0.215
			c-1.228,0-2.339,1.062-2.339,3.832c0,2.668,1.012,3.713,2.339,3.713c0.363,0,0.777-0.082,1.044-0.166L258.475,83.726z"/>
		<path fill="#086DAE" d="M265.307,79.812c0,3.385-1.873,4.213-3.102,4.213c-1.939,0-3.102-1.525-3.102-4.164
			c0-2.918,1.524-4.228,3.134-4.228C264.162,75.633,265.307,77.241,265.307,79.812z M261.259,79.812
			c0,1.396,0.216,2.555,0.996,2.555c0.712,0,0.896-1.36,0.896-2.555c0-1.109-0.185-2.52-0.932-2.52
			C261.425,77.292,261.259,78.701,261.259,79.812z"/>
		<path fill="#086DAE" d="M266.516,78.219c0-0.878-0.031-1.657-0.064-2.438h1.891l0.115,0.927h0.034
			c0.415-0.598,1.095-1.075,1.923-1.075c0.912,0,1.493,0.414,1.775,1.111h0.033c0.198-0.315,0.515-0.614,0.828-0.813
			c0.331-0.199,0.713-0.298,1.129-0.298c1.459,0,2.104,1.159,2.104,3.101v5.158h-2.173v-4.795c0-0.91-0.098-1.656-0.745-1.656
			c-0.382,0-0.681,0.266-0.813,0.729c-0.05,0.134-0.065,0.349-0.065,0.579v5.143h-2.173v-5.093c0-0.596-0.051-1.358-0.729-1.358
			c-0.331,0-0.663,0.232-0.813,0.729c-0.051,0.147-0.084,0.382-0.084,0.614v5.105h-2.174v-5.671H266.516z"/>
		<path fill="#086DAE" d="M277.793,78.353c0-0.979-0.034-1.791-0.066-2.57h1.892l0.114,0.927h0.033
			c0.332-0.661,0.945-1.075,1.709-1.075c1.773,0,2.504,1.939,2.504,4.195c0,2.886-1.261,4.195-2.638,4.195
			c-0.661,0-1.11-0.414-1.342-0.795h-0.036v3.847h-2.17V78.353z M279.963,80.94c0,0.266,0.036,0.514,0.118,0.68
			c0.167,0.497,0.446,0.63,0.694,0.63c0.765,0,1.048-1.131,1.048-2.403c0-1.543-0.382-2.375-1.029-2.375
			c-0.331,0-0.646,0.316-0.729,0.698c-0.084,0.164-0.102,0.382-0.102,0.579V80.94z"/>
		<path fill="#086DAE" d="M290.693,82.033c0,0.647,0.035,1.311,0.117,1.856h-1.94l-0.115-0.796h-0.051
			c-0.433,0.615-1.077,0.929-1.793,0.929c-1.228,0-2.138-1.027-2.138-2.453c0-2.141,1.875-3.002,3.714-3.019v-0.185
			c0-0.645-0.363-1.111-1.145-1.111c-0.645,0-1.159,0.184-1.659,0.48l-0.396-1.476c0.464-0.247,1.394-0.614,2.537-0.614
			c2.472,0,2.868,1.727,2.868,3.386V82.033z M288.557,79.942c-0.713,0.019-1.727,0.267-1.727,1.395c0,0.797,0.447,1.096,0.779,1.096
			c0.363,0,0.746-0.216,0.896-0.697c0.031-0.114,0.051-0.233,0.051-0.381V79.942L288.557,79.942z"/>
		<path fill="#086DAE" d="M292.219,78.219c0-0.878-0.031-1.657-0.063-2.438h1.875l0.114,0.927h0.032
			c0.413-0.629,1.112-1.061,1.956-1.061c1.545,0,2.156,1.228,2.156,3.035v5.207h-2.173v-5.072c0-0.682-0.165-1.348-0.796-1.348
			c-0.363,0-0.662,0.252-0.813,0.732c-0.064,0.164-0.115,0.43-0.115,0.747v4.94h-2.174V78.219z"/>
		<path fill="#086DAE" d="M301.291,75.781l0.795,4.229c0.102,0.479,0.166,0.911,0.232,1.359h0.033
			c0.067-0.415,0.133-0.88,0.198-1.326l0.664-4.263h2.138l-1.656,6.271c-0.396,1.525-0.93,3.103-1.809,4.127
			c-0.697,0.813-1.508,1.195-1.842,1.277l-0.661-1.875c0.363-0.13,0.744-0.363,1.078-0.662c0.299-0.28,0.529-0.63,0.681-0.979
			c0.064-0.133,0.115-0.229,0.115-0.349c0-0.098-0.033-0.198-0.068-0.299l-2.237-7.513h2.339V75.781z"/>
	</g>
	<g>
		<path fill="#121E47" d="M133.379,26.862l0.12,5.96h-1.383c-0.239-1.593-0.843-2.776-1.808-3.544
			c-0.966-0.77-2.322-1.154-4.069-1.154c-0.994,0-1.652,0.128-1.976,0.385c-0.325,0.256-0.487,0.981-0.487,2.175v3.918h0.961
			c1.042,0,1.823-0.263,2.344-0.787c0.521-0.525,0.813-1.34,0.877-2.446h1.406v7.933l-1.406-0.012
			c-0.072-1.17-0.37-2.035-0.896-2.596c-0.524-0.561-1.3-0.841-2.325-0.841h-0.961v4.927c0,1.057,0.112,1.724,0.336,2.001
			c0.225,0.276,0.645,0.434,1.262,0.475l0.709,0.06v1.274h-9.074v-1.274l0.746-0.06c0.601-0.041,1.011-0.194,1.231-0.462
			c0.22-0.269,0.331-0.939,0.331-2.013V30.683c0-1.082-0.11-1.756-0.331-2.025c-0.22-0.268-0.636-0.422-1.244-0.462l-0.733-0.048
			v-1.286H133.379z"/>
		<path fill="#121E47" d="M135.998,34.542c0-0.97-0.11-1.568-0.331-1.796c-0.22-0.229-0.72-0.368-1.495-0.415v-1.178h0.493
			c0.937,0,1.841-0.035,2.715-0.103c0.872-0.067,1.715-0.166,2.523-0.294v10.432c0,1.001,0.097,1.613,0.29,1.833
			c0.19,0.22,0.58,0.342,1.165,0.366v1.202h-7.187v-1.202c0.76-0.032,1.256-0.162,1.484-0.39c0.228-0.229,0.342-0.831,0.342-1.809
			L135.998,34.542L135.998,34.542z M135.505,26.994c0-0.569,0.202-1.02,0.607-1.352c0.404-0.333,0.955-0.499,1.652-0.499
			c0.697,0,1.243,0.164,1.64,0.492c0.397,0.329,0.596,0.781,0.596,1.358c0,0.569-0.198,1.018-0.596,1.345
			c-0.396,0.329-0.942,0.494-1.64,0.494c-0.698,0-1.248-0.165-1.652-0.494C135.707,28.012,135.505,27.563,135.505,26.994z"/>
		<path fill="#121E47" d="M156.08,41.188c0,0.985,0.111,1.59,0.332,1.814c0.22,0.224,0.706,0.352,1.46,0.384v1.202h-7.163v-1.202
			c0.577-0.024,0.958-0.141,1.149-0.354c0.187-0.213,0.281-0.827,0.281-1.845v-5.853c0-0.881-0.12-1.528-0.361-1.941
			c-0.239-0.413-0.612-0.619-1.118-0.619c-0.864,0-1.491,0.453-1.881,1.359c-0.388,0.905-0.582,2.404-0.582,4.495v2.56
			c0,1.001,0.097,1.613,0.288,1.833c0.193,0.22,0.582,0.342,1.166,0.366v1.202h-7.187v-1.202c0.761-0.032,1.256-0.162,1.483-0.39
			c0.229-0.229,0.344-0.831,0.344-1.809v-6.646c0-0.97-0.111-1.568-0.332-1.796c-0.219-0.229-0.719-0.368-1.495-0.415v-1.178h0.468
			c0.882,0,1.738-0.035,2.565-0.103c0.83-0.067,1.634-0.166,2.411-0.294v3.004c0.409-0.874,0.983-1.557,1.725-2.049
			c0.741-0.493,1.568-0.739,2.482-0.739c1.361,0,2.361,0.425,3.003,1.274c0.642,0.849,0.961,2.183,0.961,4.001L156.08,41.188
			L156.08,41.188z"/>
		<path fill="#121E47" d="M163.712,37.593v0.625c0,1.851,0.24,3.191,0.722,4.02c0.48,0.83,1.258,1.244,2.33,1.244
			c0.834,0,1.537-0.259,2.108-0.775c0.573-0.517,0.978-1.259,1.21-2.23h1.333c-0.248,1.451-0.832,2.564-1.749,3.342
			c-0.917,0.776-2.107,1.165-3.575,1.165c-2.044,0-3.679-0.645-4.903-1.934c-1.226-1.29-1.838-3.018-1.838-5.18
			c0-2.116,0.584-3.834,1.754-5.156c1.17-1.323,2.676-1.983,4.52-1.983c1.738,0,3.104,0.591,4.1,1.771
			c0.992,1.182,1.489,2.807,1.489,4.874v0.216L163.712,37.593L163.712,37.593z M163.734,36.344h3.486v-1.311
			c0-1.049-0.136-1.807-0.402-2.271c-0.27-0.464-0.699-0.697-1.293-0.697c-0.562,0-0.998,0.26-1.315,0.781
			c-0.315,0.521-0.476,1.25-0.476,2.188V36.344z"/>
		<path fill="#121E47" d="M189.239,26.862v1.286l-0.71,0.048c-0.608,0.04-1.026,0.198-1.256,0.474
			c-0.228,0.277-0.342,0.948-0.342,2.013v10.096c0,1.057,0.111,1.724,0.336,2.001c0.225,0.276,0.646,0.434,1.262,0.475l0.71,0.06
			v1.274h-9.073v-1.274l0.744-0.06c0.602-0.041,1.012-0.194,1.23-0.462c0.221-0.269,0.332-0.939,0.332-2.013V30.683
			c0-1.082-0.111-1.756-0.332-2.025c-0.22-0.268-0.636-0.422-1.242-0.462l-0.732-0.048v-1.286H189.239z"/>
		<path fill="#121E47" d="M204.309,41.188c0,0.985,0.11,1.59,0.332,1.814c0.221,0.224,0.707,0.352,1.461,0.384v1.202h-7.162v-1.202
			c0.576-0.024,0.957-0.141,1.147-0.354c0.188-0.213,0.281-0.827,0.281-1.845v-5.853c0-0.881-0.121-1.528-0.361-1.941
			c-0.239-0.413-0.612-0.619-1.116-0.619c-0.865,0-1.492,0.453-1.883,1.359c-0.388,0.905-0.582,2.404-0.582,4.495v2.56
			c0,1.001,0.098,1.613,0.288,1.833c0.193,0.22,0.582,0.342,1.166,0.366v1.202h-7.187v-1.202c0.761-0.032,1.257-0.162,1.482-0.39
			c0.229-0.229,0.344-0.831,0.344-1.809v-6.646c0-0.97-0.11-1.568-0.33-1.796c-0.221-0.229-0.719-0.368-1.496-0.415v-1.178h0.469
			c0.882,0,1.736-0.035,2.564-0.103c0.83-0.067,1.633-0.166,2.41-0.294v3.004c0.409-0.874,0.983-1.557,1.725-2.049
			c0.74-0.493,1.568-0.739,2.481-0.739c1.362,0,2.363,0.425,3.005,1.274s0.961,2.183,0.961,4.001V41.188L204.309,41.188z"/>
		<path fill="#121E47" d="M220.797,41.188c0,0.985,0.11,1.59,0.331,1.814c0.22,0.224,0.707,0.352,1.461,0.384v1.202h-0.47
			c-0.874,0-1.721,0.032-2.543,0.096c-0.82,0.063-1.619,0.164-2.397,0.301v-2.631c-0.513,0.905-1.092,1.571-1.741,1.995
			c-0.649,0.425-1.414,0.637-2.295,0.637c-1.69,0-3.041-0.643-4.052-1.929c-1.01-1.286-1.514-3.014-1.514-5.185
			c0-2.131,0.503-3.854,1.509-5.168c1.004-1.313,2.311-1.97,3.912-1.97c0.729,0,1.425,0.154,2.091,0.462
			c0.665,0.309,1.277,0.763,1.839,1.365v-2.693c0-0.969-0.115-1.576-0.344-1.82c-0.229-0.244-0.727-0.367-1.495-0.367h-0.541v-1.202
			h0.687c0.849,0,1.738-0.041,2.668-0.12c0.929-0.08,1.895-0.196,2.896-0.349L220.797,41.188L220.797,41.188z M214.247,43.063
			c0.961,0,1.647-0.403,2.062-1.208c0.414-0.806,0.619-2.181,0.619-4.129c0-1.946-0.195-3.32-0.589-4.122
			c-0.394-0.801-1.051-1.202-1.971-1.202c-0.896,0-1.545,0.415-1.941,1.243c-0.396,0.83-0.595,2.214-0.595,4.153
			c0,1.979,0.182,3.351,0.547,4.117C212.742,42.679,213.367,43.063,214.247,43.063z"/>
		<path fill="#121E47" d="M233.488,41.98c-0.4,0.858-0.978,1.535-1.73,2.031c-0.753,0.496-1.578,0.744-2.475,0.744
			c-1.361,0-2.365-0.423-3.006-1.273s-0.963-2.18-0.963-3.991V34.54c0-0.994-0.112-1.604-0.342-1.833
			c-0.228-0.228-0.711-0.354-1.447-0.378v-1.178h0.492c0.922,0,1.814-0.033,2.681-0.096c0.866-0.064,1.721-0.165,2.56-0.301v8.593
			c0,1.314,0.115,2.238,0.344,2.771c0.228,0.533,0.606,0.799,1.135,0.799c0.306,0,0.599-0.088,0.879-0.264
			c0.279-0.176,0.529-0.425,0.744-0.746c0.305-0.448,0.521-0.977,0.648-1.586c0.128-0.608,0.193-1.683,0.193-3.221v-2.56
			c0-0.978-0.115-1.583-0.342-1.815c-0.229-0.232-0.726-0.364-1.485-0.396v-1.178h0.493c0.92,0,1.82-0.035,2.697-0.103
			c0.877-0.067,1.731-0.166,2.564-0.294v10.432c0,1.001,0.117,1.613,0.35,1.833c0.231,0.22,0.717,0.342,1.455,0.366v1.202h-0.471
			c-0.881,0-1.736,0.032-2.566,0.096c-0.828,0.063-1.633,0.164-2.408,0.301V41.98z"/>
		<path fill="#121E47" d="M241.711,44.984h-0.854v-4.782h1.009c0.416,1.098,1.021,1.951,1.815,2.56
			c0.793,0.609,1.687,0.913,2.68,0.913c0.593,0,1.062-0.14,1.406-0.42c0.344-0.28,0.517-0.658,0.517-1.13
			c0-0.465-0.14-0.859-0.42-1.184c-0.282-0.324-0.839-0.691-1.673-1.1l-0.467-0.241c-3.334-1.642-5-3.26-5-4.855
			c0-1.169,0.391-2.127,1.172-2.872c0.78-0.745,1.771-1.118,2.975-1.118c0.841,0,1.664,0.153,2.469,0.457
			c0.807,0.305,1.212,0.457,1.221,0.457c0.233,0,0.426-0.081,0.576-0.241c0.152-0.16,0.249-0.384,0.29-0.673h0.828v4.302h-0.817
			c-0.617-1.001-1.283-1.76-2-2.277c-0.719-0.517-1.468-0.776-2.254-0.776c-0.568,0-1.027,0.131-1.377,0.391
			c-0.348,0.26-0.521,0.599-0.521,1.015c0,0.609,0.718,1.243,2.15,1.899l0.217,0.096c2.355,1.089,3.845,1.986,4.466,2.691
			c0.62,0.706,0.932,1.599,0.932,2.681c0,1.225-0.438,2.233-1.312,3.022s-1.998,1.184-3.375,1.184c-0.723,0-1.491-0.145-2.311-0.433
			c-0.816-0.288-1.27-0.432-1.355-0.432c-0.17,0-0.334,0.071-0.493,0.211C242.042,44.47,241.878,44.688,241.711,44.984z"/>
		<path fill="#121E47" d="M254.232,32.402h-1.84v-1.25c1.051-0.232,1.943-0.765,2.682-1.599c0.736-0.833,1.354-2.015,1.849-3.545
			h1.203v5.144h3.474v1.25h-3.496v8.004c0,0.697,0.101,1.204,0.299,1.521c0.201,0.316,0.524,0.474,0.975,0.474
			c0.529,0,0.934-0.186,1.214-0.558c0.279-0.373,0.421-0.908,0.421-1.605v-0.325h1.227v0.325c0,1.555-0.35,2.734-1.045,3.54
			c-0.697,0.804-1.721,1.207-3.065,1.207c-1.267,0-2.231-0.346-2.896-1.039c-0.666-0.693-0.998-1.701-0.998-3.023v-8.521H254.232z"
			/>
		<path fill="#121E47" d="M263.391,43.386c0.76-0.032,1.256-0.162,1.483-0.39c0.229-0.229,0.344-0.831,0.344-1.809v-6.646
			c0-0.978-0.114-1.583-0.344-1.815c-0.228-0.232-0.724-0.364-1.483-0.396v-1.178h0.467c0.884,0,1.74-0.035,2.566-0.103
			c0.831-0.067,1.635-0.166,2.41-0.294V34c0.441-0.985,0.959-1.737,1.552-2.254c0.593-0.516,1.229-0.774,1.911-0.774
			c0.712,0,1.301,0.237,1.766,0.709c0.465,0.472,0.696,1.074,0.696,1.803c0,0.633-0.19,1.144-0.569,1.532
			c-0.381,0.389-0.879,0.583-1.496,0.583c-0.489,0-0.889-0.131-1.201-0.396c-0.313-0.264-0.471-0.605-0.471-1.021
			c0-0.04,0.004-0.108,0.014-0.204c0.008-0.096,0.012-0.168,0.012-0.217c0-0.16-0.031-0.278-0.096-0.354
			c-0.064-0.076-0.164-0.114-0.301-0.114c-0.512,0-0.896,0.443-1.147,1.328c-0.253,0.885-0.378,2.221-0.378,4.008v2.56
			c0,0.978,0.128,1.578,0.383,1.802c0.258,0.224,0.842,0.357,1.756,0.396v1.202h-7.871v-1.203H263.391z"/>
		<path fill="#121E47" d="M277.174,34.542c0-0.97-0.109-1.568-0.33-1.796c-0.22-0.229-0.719-0.368-1.496-0.415v-1.178h0.493
			c0.938,0,1.843-0.035,2.716-0.103c0.873-0.067,1.715-0.166,2.523-0.294v10.432c0,1.001,0.098,1.613,0.289,1.833
			s0.581,0.342,1.166,0.366v1.202h-7.188v-1.202c0.76-0.032,1.256-0.162,1.483-0.39c0.229-0.229,0.342-0.831,0.342-1.809
			L277.174,34.542L277.174,34.542z M276.682,26.994c0-0.569,0.201-1.02,0.607-1.352c0.402-0.333,0.955-0.499,1.652-0.499
			c0.695,0,1.242,0.164,1.639,0.492c0.396,0.329,0.598,0.781,0.598,1.358c0,0.569-0.199,1.018-0.598,1.345
			c-0.396,0.329-0.941,0.494-1.639,0.494s-1.25-0.165-1.652-0.494C276.883,28.012,276.682,27.563,276.682,26.994z"/>
		<path fill="#121E47" d="M291.489,42.689c-0.665,0.778-1.358,1.355-2.079,1.731c-0.723,0.376-1.494,0.564-2.32,0.564
			c-1.018,0-1.839-0.293-2.464-0.877c-0.625-0.585-0.937-1.35-0.937-2.295c0-1.226,0.597-2.289,1.789-3.191
			c1.194-0.901,3.196-1.792,6.011-2.674c0.007-0.112,0.014-0.238,0.018-0.379c0.004-0.14,0.007-0.334,0.007-0.583
			c0-1.042-0.178-1.772-0.529-2.193c-0.353-0.42-0.953-0.631-1.803-0.631c-0.48,0-0.906,0.084-1.274,0.252s-0.552,0.336-0.552,0.504
			c0,0.024,0.039,0.077,0.119,0.156c0.416,0.417,0.627,0.874,0.627,1.371c0,0.433-0.158,0.787-0.471,1.063
			c-0.313,0.276-0.718,0.415-1.214,0.415c-0.585,0-1.042-0.166-1.369-0.499c-0.329-0.332-0.493-0.799-0.493-1.4
			c0-0.946,0.508-1.73,1.521-2.355c1.013-0.625,2.31-0.937,3.888-0.937c0.992,0,1.89,0.138,2.687,0.415
			c0.797,0.276,1.436,0.67,1.916,1.184c0.313,0.328,0.535,0.711,0.666,1.147c0.134,0.437,0.201,1.164,0.201,2.181v0.217v5.804
			c0,0.417,0.036,0.689,0.112,0.818c0.075,0.128,0.21,0.191,0.402,0.191c0.168,0,0.307-0.073,0.414-0.222
			c0.108-0.148,0.175-0.351,0.198-0.607h0.961c-0.047,0.993-0.325,1.762-0.834,2.307c-0.508,0.545-1.209,0.817-2.098,0.817
			c-0.793,0-1.463-0.202-2.009-0.607C292.037,43.973,291.674,43.411,291.489,42.689z M291.489,37.208
			c-1.459,0.569-2.509,1.142-3.149,1.719c-0.642,0.577-0.961,1.234-0.961,1.971c0,0.537,0.155,0.978,0.469,1.322
			c0.313,0.344,0.717,0.517,1.213,0.517c0.825,0,1.441-0.369,1.846-1.106c0.404-0.737,0.607-1.858,0.607-3.365
			c0-0.288-0.003-0.506-0.007-0.655C291.503,37.464,291.496,37.33,291.489,37.208z"/>
		<path fill="#121E47" d="M304.071,41.188c0,1.001,0.097,1.613,0.288,1.833s0.58,0.342,1.164,0.366v1.202h-7.186v-1.202
			c0.76-0.032,1.256-0.162,1.483-0.39c0.228-0.229,0.343-0.831,0.343-1.809V29.866c0-0.961-0.111-1.554-0.331-1.779
			c-0.22-0.224-0.719-0.36-1.495-0.408v-1.202h0.708c0.874,0,1.729-0.041,2.566-0.12c0.836-0.08,1.655-0.196,2.458-0.349
			L304.071,41.188L304.071,41.188z"/>
	</g>
	<g>
		<path fill="#121E47" d="M134.427,59.281c-0.437,2.106-1.388,3.722-2.854,4.844c-1.467,1.121-3.365,1.681-5.695,1.681
			c-1.342,0-2.59-0.199-3.741-0.605c-1.151-0.404-2.189-1.008-3.114-1.809c-0.979-0.843-1.717-1.845-2.214-3.006
			c-0.499-1.16-0.748-2.463-0.748-3.905c0-1.386,0.262-2.654,0.787-3.804c0.525-1.149,1.304-2.165,2.335-3.047
			c0.924-0.792,1.96-1.396,3.106-1.808c1.147-0.413,2.362-0.619,3.642-0.619c0.534,0,1.056,0.041,1.567,0.126
			c0.511,0.083,0.993,0.206,1.447,0.366c0.142,0.057,0.347,0.137,0.613,0.24c0.987,0.377,1.636,0.564,1.946,0.564
			c0.303,0,0.541-0.104,0.715-0.312c0.172-0.209,0.26-0.497,0.26-0.865h1.428l0.32,7.354h-1.388
			c-0.614-2.107-1.386-3.625-2.314-4.556c-0.929-0.929-2.133-1.394-3.609-1.394c-1.787,0-3.136,0.656-4.048,1.972
			c-0.912,1.314-1.367,3.256-1.367,5.829c0,2.626,0.42,4.582,1.26,5.859c0.841,1.275,2.124,1.916,3.85,1.916
			c1.45,0,2.706-0.438,3.768-1.316c1.062-0.875,1.83-2.113,2.3-3.707h1.749V59.281z"/>
		<path fill="#121E47" d="M145.695,51.48c2.188,0,3.949,0.65,5.288,1.946c1.338,1.299,2.009,3.021,2.009,5.169
			c0,2.124-0.675,3.84-2.021,5.15c-1.35,1.309-3.107,1.964-5.276,1.964c-2.17,0-3.928-0.655-5.276-1.964
			c-1.346-1.311-2.021-3.026-2.021-5.15c0-2.146,0.667-3.87,2.001-5.169C141.734,52.131,143.499,51.48,145.695,51.48z
			 M145.669,64.446c0.89,0,1.521-0.43,1.894-1.297c0.374-0.865,0.561-2.383,0.561-4.555c0-2.154-0.185-3.671-0.555-4.55
			c-0.368-0.876-0.984-1.314-1.847-1.314c-0.881,0-1.505,0.43-1.874,1.292c-0.369,0.86-0.554,2.386-0.554,4.572
			c0,2.172,0.182,3.688,0.54,4.555C144.194,64.017,144.807,64.446,145.669,64.446z"/>
		<path fill="#121E47" d="M155.927,64.112c0.843-0.033,1.394-0.162,1.646-0.391c0.254-0.229,0.38-0.832,0.38-1.81v-6.646
			c0-0.978-0.126-1.584-0.38-1.816c-0.253-0.231-0.804-0.364-1.646-0.396v-1.178h0.519c0.979,0,1.929-0.034,2.849-0.104
			c0.92-0.067,1.813-0.165,2.675-0.294v3.245c0.488-0.984,1.063-1.736,1.721-2.254c0.658-0.516,1.365-0.773,2.121-0.773
			c0.791,0,1.443,0.235,1.961,0.708c0.516,0.474,0.773,1.074,0.773,1.803c0,0.633-0.212,1.144-0.634,1.532
			c-0.423,0.39-0.978,0.582-1.66,0.582c-0.544,0-0.987-0.132-1.334-0.396c-0.349-0.264-0.521-0.604-0.521-1.021
			c0-0.04,0.004-0.107,0.015-0.204c0.009-0.096,0.012-0.168,0.012-0.217c0-0.16-0.034-0.278-0.104-0.354
			c-0.07-0.076-0.183-0.113-0.334-0.113c-0.569,0-0.993,0.442-1.272,1.327c-0.282,0.886-0.421,2.223-0.421,4.01v2.56
			c0,0.978,0.143,1.579,0.426,1.802c0.286,0.225,0.936,0.355,1.948,0.396v1.201h-8.735v-1.199H155.927z"/>
		<path fill="#121E47" d="M173.695,55.268c0-0.978-0.127-1.584-0.381-1.816c-0.254-0.231-0.803-0.364-1.647-0.396v-1.178h0.521
			c1.004,0,1.967-0.036,2.881-0.108c0.916-0.071,1.796-0.176,2.642-0.313v2.512c0.587-0.849,1.256-1.479,2.009-1.894
			c0.75-0.412,1.604-0.618,2.555-0.618c1.822,0,3.291,0.649,4.408,1.947c1.114,1.298,1.674,3.029,1.674,5.191
			c0,2.131-0.56,3.854-1.674,5.168c-1.117,1.314-2.56,1.973-4.328,1.973c-0.828,0-1.611-0.158-2.355-0.471
			c-0.742-0.313-1.398-0.765-1.966-1.356v2.561c0,0.992,0.14,1.603,0.42,1.826c0.278,0.224,0.901,0.356,1.873,0.396v1.178h-8.656
			V68.69c0.845-0.031,1.396-0.166,1.647-0.396c0.254-0.233,0.381-0.842,0.381-1.826V55.268H173.695z M178.029,56.926v3.714
			c0,1.041,0.25,1.869,0.746,2.481c0.498,0.61,1.17,0.917,2.016,0.917c0.816,0,1.477-0.309,1.98-0.93
			c0.502-0.621,0.752-1.443,0.752-2.471v-3.713c0-1.161-0.221-2.04-0.659-2.632c-0.439-0.594-1.087-0.89-1.94-0.89
			c-0.889,0-1.593,0.314-2.113,0.942C178.291,54.977,178.029,55.836,178.029,56.926z"/>
		<path fill="#121E47" d="M199.184,51.48c2.188,0,3.949,0.65,5.289,1.946c1.338,1.299,2.008,3.021,2.008,5.169
			c0,2.124-0.676,3.84-2.021,5.15c-1.348,1.309-3.105,1.964-5.275,1.964s-3.927-0.655-5.274-1.964
			c-1.347-1.311-2.021-3.026-2.021-5.15c0-2.146,0.668-3.87,2.002-5.169C195.223,52.131,196.986,51.48,199.184,51.48z
			 M199.156,64.446c0.89,0,1.521-0.43,1.894-1.297c0.374-0.865,0.562-2.383,0.562-4.555c0-2.154-0.186-3.671-0.555-4.55
			c-0.367-0.876-0.983-1.314-1.847-1.314c-0.881,0-1.506,0.43-1.875,1.292c-0.368,0.86-0.554,2.386-0.554,4.572
			c0,2.172,0.182,3.688,0.539,4.555C197.684,64.017,198.294,64.446,199.156,64.446z"/>
		<path fill="#121E47" d="M209.411,64.112c0.845-0.033,1.396-0.162,1.647-0.391c0.254-0.229,0.381-0.832,0.381-1.81v-6.646
			c0-0.978-0.127-1.584-0.381-1.816c-0.254-0.231-0.804-0.364-1.647-0.396v-1.178h0.521c0.979,0,1.928-0.034,2.849-0.104
			c0.92-0.067,1.813-0.165,2.675-0.294v3.245c0.488-0.984,1.063-1.736,1.721-2.254c0.657-0.516,1.365-0.773,2.122-0.773
			c0.789,0,1.443,0.235,1.96,0.708c0.516,0.474,0.773,1.074,0.773,1.803c0,0.633-0.213,1.144-0.635,1.532
			c-0.422,0.39-0.978,0.582-1.66,0.582c-0.543,0-0.986-0.132-1.334-0.396c-0.348-0.264-0.521-0.604-0.521-1.021
			c0-0.04,0.007-0.107,0.015-0.204c0.01-0.096,0.014-0.168,0.014-0.217c0-0.16-0.035-0.278-0.107-0.354
			c-0.07-0.076-0.181-0.113-0.332-0.113c-0.568,0-0.994,0.442-1.273,1.327c-0.281,0.886-0.42,2.223-0.42,4.01v2.56
			c0,0.978,0.142,1.579,0.427,1.802c0.284,0.225,0.935,0.355,1.946,0.396v1.201h-8.736v-1.199H209.411z"/>
		<path fill="#121E47" d="M233.063,63.413c-0.738,0.779-1.51,1.355-2.309,1.732c-0.801,0.377-1.659,0.563-2.574,0.563
			c-1.13,0-2.041-0.292-2.736-0.877c-0.692-0.584-1.039-1.351-1.039-2.295c0-1.228,0.662-2.291,1.988-3.19
			c1.323-0.9,3.549-1.793,6.67-2.675c0.009-0.112,0.016-0.238,0.019-0.379c0.005-0.14,0.008-0.334,0.008-0.583
			c0-1.041-0.196-1.772-0.588-2.192c-0.392-0.421-1.06-0.632-2-0.632c-0.534,0-1.005,0.085-1.415,0.253
			c-0.408,0.168-0.611,0.336-0.611,0.505c0,0.023,0.045,0.076,0.131,0.155c0.463,0.417,0.696,0.874,0.696,1.371
			c0,0.432-0.176,0.787-0.521,1.063c-0.346,0.275-0.797,0.415-1.348,0.415c-0.648,0-1.156-0.166-1.521-0.499s-0.546-0.8-0.546-1.4
			c0-0.946,0.563-1.73,1.688-2.355c1.123-0.625,2.563-0.938,4.313-0.938c1.103,0,2.099,0.139,2.981,0.416
			c0.883,0.274,1.594,0.669,2.127,1.183c0.349,0.328,0.594,0.711,0.74,1.147c0.146,0.437,0.221,1.164,0.221,2.182V56.6v5.805
			c0,0.416,0.041,0.688,0.127,0.818c0.084,0.127,0.231,0.188,0.445,0.188c0.188,0,0.342-0.072,0.461-0.22
			c0.119-0.148,0.194-0.352,0.221-0.607h1.066c-0.054,0.994-0.361,1.762-0.929,2.307c-0.563,0.545-1.339,0.817-2.326,0.817
			c-0.88,0-1.623-0.202-2.228-0.606C233.67,64.698,233.266,64.138,233.063,63.413z M233.063,57.935
			c-1.621,0.569-2.785,1.142-3.496,1.719c-0.711,0.578-1.066,1.234-1.066,1.974c0,0.535,0.174,0.976,0.52,1.319
			c0.347,0.344,0.797,0.518,1.349,0.518c0.916,0,1.6-0.369,2.048-1.105s0.674-1.858,0.674-3.364c0-0.288-0.003-0.507-0.008-0.654
			C233.077,58.188,233.07,58.056,233.063,57.935z"/>
		<path fill="#121E47" d="M245.184,53.129h-2.043v-1.251c1.166-0.232,2.157-0.765,2.977-1.6c0.818-0.832,1.502-2.015,2.054-3.545
			h1.334v5.145h3.854v1.251h-3.881v8.001c0,0.699,0.111,1.205,0.334,1.521s0.582,0.476,1.08,0.476c0.588,0,1.035-0.187,1.348-0.558
			c0.311-0.375,0.469-0.908,0.469-1.605V60.64h1.357v0.324c0,1.557-0.385,2.734-1.158,3.54s-1.908,1.207-3.402,1.207
			c-1.406,0-2.475-0.347-3.213-1.039s-1.107-1.7-1.107-3.022v-8.521H245.184z"/>
		<path fill="#121E47" d="M303.547,61.913c0,0.982,0.123,1.591,0.367,1.814s0.785,0.352,1.621,0.385v1.201h-7.95v-1.201
			c0.642-0.024,1.063-0.144,1.274-0.354c0.209-0.214,0.313-0.827,0.313-1.845V56.06c0-0.882-0.134-1.528-0.4-1.941
			s-0.68-0.619-1.242-0.619c-0.957,0-1.654,0.452-2.086,1.357c-0.431,0.907-0.646,2.404-0.646,4.496v2.561
			c0,1.002,0.107,1.611,0.321,1.833c0.213,0.22,0.644,0.342,1.293,0.366v1.201h-7.976v-1.201c0.842-0.033,1.394-0.162,1.646-0.391
			c0.252-0.229,0.379-0.832,0.379-1.81v-6.646c0-0.971-0.122-1.569-0.367-1.797c-0.242-0.229-0.798-0.367-1.658-0.415v-1.178h0.519
			c0.979,0,1.929-0.034,2.848-0.104c0.921-0.067,1.813-0.165,2.675-0.294v3.005c0.455-0.873,1.094-1.557,1.916-2.049
			c0.821-0.492,1.74-0.738,2.754-0.738c1.512,0,2.623,0.424,3.334,1.273c0.711,0.849,1.066,2.183,1.066,4.001V61.913L303.547,61.913
			z"/>
		<path fill="#121E47" d="M261.51,55.231c0-0.969-0.121-1.568-0.367-1.797c-0.244-0.229-0.799-0.366-1.66-0.414v-1.178h0.549
			c1.039,0,2.044-0.034,3.014-0.103c0.967-0.067,1.902-0.166,2.801-0.294v10.432c0,1.001,0.107,1.612,0.32,1.832
			c0.212,0.22,0.645,0.343,1.294,0.367v1.202h-7.978v-1.202c0.844-0.032,1.395-0.163,1.647-0.392s0.38-0.83,0.38-1.809V55.231z
			 M260.961,47.685c0-0.57,0.225-1.02,0.676-1.353c0.448-0.332,1.061-0.499,1.832-0.499c0.773,0,1.381,0.165,1.822,0.493
			c0.439,0.329,0.661,0.781,0.661,1.358c0,0.568-0.222,1.018-0.661,1.346c-0.441,0.328-1.049,0.493-1.822,0.493
			c-0.771,0-1.384-0.165-1.832-0.493C261.186,48.702,260.961,48.253,260.961,47.685z"/>
		<path fill="#121E47" d="M278.011,50.813c2.188,0,3.95,0.65,5.289,1.946c1.34,1.299,2.008,3.021,2.008,5.169
			c0,2.124-0.674,3.84-2.021,5.15c-1.349,1.309-3.106,1.964-5.276,1.964s-3.927-0.655-5.273-1.964
			c-1.348-1.311-2.021-3.026-2.021-5.15c0-2.146,0.667-3.87,2.001-5.169C274.05,51.464,275.813,50.813,278.011,50.813z
			 M277.983,63.779c0.891,0,1.521-0.43,1.895-1.297c0.375-0.865,0.563-2.383,0.563-4.555c0-2.154-0.187-3.671-0.555-4.55
			c-0.369-0.876-0.984-1.314-1.847-1.314c-0.882,0-1.506,0.43-1.874,1.292c-0.37,0.86-0.555,2.386-0.555,4.572
			c0,2.172,0.182,3.688,0.541,4.555C276.51,63.35,277.123,63.779,277.983,63.779z"/>
	</g>
	<g>
		<g>
			<g>
				<path fill="#121E47" d="M71.007,99.856v0.095c-9.879,2.456-19.858-0.14-19.858-0.14C29.014,95.574,12.337,77.631,12.322,56.19
					c-0.015-24.594,21.897-44.617,48.851-44.632c13.482-0.01,25.706,4.988,34.563,13.062h13.206
					C98.287,10.8,80.848,1.768,61.167,1.782c-32.342,0.02-58.64,24.432-58.62,54.415c0.016,26.798,21.05,49.115,48.608,53.542
					c10.146,1.643,19.857,0.031,19.857,0.031c16.279-2.556,30.294-11.348,39.083-23.621H97.339
					C90.491,93.015,81.338,97.933,71.007,99.856z M95.226,14.979c1.462,0,2.646,1.183,2.646,2.644
					c0.002,1.461-1.182,2.646-2.642,2.648c-1.459,0-2.648-1.183-2.648-2.644S93.764,14.98,95.226,14.979z M77.199,6.108
					c1.461-0.002,2.646,1.183,2.648,2.645c0,1.459-1.184,2.646-2.645,2.646c-1.46,0.002-2.647-1.183-2.647-2.642
					C74.554,7.295,75.737,6.109,77.199,6.108z M58.042,4.076c1.463-0.001,2.646,1.184,2.646,2.643
					c0.003,1.462-1.182,2.647-2.644,2.647c-1.459,0-2.645-1.182-2.645-2.642C55.399,5.262,56.582,4.078,58.042,4.076z M40.521,7.653
					c1.462,0,2.647,1.184,2.647,2.644c0,1.462-1.18,2.645-2.643,2.645c-1.461,0.003-2.647-1.182-2.647-2.643
					C37.877,8.84,39.059,7.653,40.521,7.653z M24.341,17.228c1.461-0.002,2.646,1.182,2.646,2.644
					c0.003,1.461-1.183,2.647-2.646,2.647c-1.46,0-2.645-1.183-2.646-2.645C21.695,18.414,22.88,17.228,24.341,17.228z
					 M11.489,35.022c1.461,0,2.646,1.182,2.648,2.643c0,1.462-1.183,2.648-2.645,2.649c-1.461,0-2.646-1.183-2.646-2.645
					C8.844,36.208,10.029,35.023,11.489,35.022z M4.483,56.685c0-1.462,1.184-2.645,2.644-2.646c1.462,0,2.646,1.181,2.648,2.642
					c0,1.463-1.184,2.648-2.644,2.649C5.669,59.329,4.487,58.146,4.483,56.685z M11.493,78.229
					c-1.461,0.002-2.646-1.182-2.646-2.645c-0.001-1.463,1.183-2.646,2.643-2.648c1.462,0,2.648,1.184,2.648,2.646
					C14.138,77.042,12.954,78.229,11.493,78.229z M24.15,95.156c-1.459,0.002-2.646-1.185-2.647-2.642
					c0-1.464,1.184-2.649,2.646-2.649c1.46,0,2.644,1.184,2.645,2.646C26.796,93.972,25.613,95.156,24.15,95.156z M40.524,104.491
					c-1.461,0-2.647-1.186-2.647-2.645c0-1.463,1.182-2.648,2.644-2.648s2.647,1.183,2.647,2.645
					C43.167,103.302,41.985,104.491,40.524,104.491z M58.047,108.679c-1.462,0-2.647-1.183-2.647-2.644
					c0-1.464,1.183-2.647,2.644-2.647s2.646,1.178,2.646,2.643C60.691,107.491,59.509,108.679,58.047,108.679z M77.446,106.222
					c-1.459,0-2.646-1.187-2.646-2.644c0-1.463,1.183-2.649,2.644-2.649c1.462,0,2.646,1.184,2.648,2.643
					C80.093,105.033,78.909,106.219,77.446,106.222z M95.23,96.892c-1.459,0-2.648-1.182-2.648-2.641
					c0-1.464,1.183-2.646,2.644-2.648c1.462,0,2.646,1.185,2.646,2.646C97.875,95.707,96.69,96.892,95.23,96.892z"/>
			</g>
		</g>
	</g>
	<rect x="31.139" y="51.286" fill="#121E47" width="36.717" height="9.682"/>
	<rect x="44.658" y="28.167" fill="#086DAE" width="36.684" height="9.681"/>
	<g>
		<rect x="44.657" y="63.511" fill="#086DAE" width="9.681" height="26.98"/>
	</g>
	<circle fill="#FFFFFF" cx="49.498" cy="55.998" r="3.157"/>
	<rect x="44.657" y="28.167" fill="#086DAE" width="9.681" height="20.02"/>
</g>
</svg>
